<svg width="195" height="231" viewBox="0 0 195 231" fill="none" xmlns="http://www.w3.org/2000/svg">
<path d="M54.5 164C73.0015 164 88 178.998 88 197.5C88 216.002 73.0015 231 54.5 231C35.9985 231 21 216.002 21 197.5C21 178.998 35.9985 164 54.5 164ZM78.5 0C121.854 0 157 35.1456 157 78.5C157 96.093 151.212 112.334 141.437 125.423C138.108 129.88 136.064 135.264 136.456 140.812L136.719 144.525C136.904 147.145 137.65 149.693 138.906 151.999L140.115 154.22C144.085 161.507 153.202 164 161.5 164C180.002 164 195 178.998 195 197.5C195 216.002 180.002 231 161.5 231C142.998 231 128 216.002 128 197.5C128 196.061 128.09 194.643 128.267 193.252C129.572 182.943 129.576 171.044 122.05 163.879L120.801 162.69C119.276 161.239 117.533 160.038 115.634 159.131L110.245 156.556C105.599 154.336 100.3 154.108 95.2686 155.203C89.8658 156.38 84.2553 157 78.5 157C35.1456 157 0 121.854 0 78.5C0 35.1456 35.1456 0 78.5 0ZM47.5 53C31.7599 53 19 65.7599 19 81.5C19 97.2401 31.7599 110 47.5 110C63.2401 110 76 97.2401 76 81.5C76 65.7599 63.2401 53 47.5 53Z" fill="#000"/>
<circle cx="89.5" cy="59.5" r="28.5" fill="#fff"/>
</svg>
