<svg width="26" height="26" viewBox="0 0 26 26" fill="none" xmlns="http://www.w3.org/2000/svg">
<path d="M5 13L5 17" stroke="#CCCCCC" stroke-width="1.4" stroke-linecap="round"/>
<path d="M7 14.9902L3 15.0002" stroke="#CCCCCC" stroke-width="1.4" stroke-linecap="round"/>
<path d="M6.66605 6.8201C7.21089 6.39633 7.99607 6.49415 8.41995 7.03885C8.41995 7.03885 8.43054 7.05159 8.45609 7.07596C8.48205 7.10073 8.51969 7.13275 8.57034 7.17166C8.6725 7.25014 8.81406 7.34413 8.99906 7.44608C9.37 7.65044 9.87671 7.86772 10.503 8.05545C11.7545 8.43057 14.4273 8.67183 16.3487 8.50076L16.4912 8.49295C17.9666 8.45816 19.398 9.90128 18.7393 11.5769C18.0174 13.4126 17.2332 14.9488 16.6319 16.0662H19.3594C21.3328 16.0665 21.5121 18.1447 20.4355 19.2657L15.8145 24.2869C15.3405 24.7888 14.5488 24.8117 14.0469 24.3377C13.5453 23.8638 13.5225 23.0729 13.9961 22.5711L17.7784 18.5662H14.0635C12.4221 18.5662 11.3494 16.8625 12.1641 15.3767L12.6612 14.4539C13.1531 13.5193 13.7243 12.355 14.2696 11.0135C12.1424 11.1645 11.2595 10.8919 9.78519 10.45C9.01443 10.2189 8.34043 9.93809 7.793 9.63651C7.27148 9.34918 6.77363 8.99345 6.4473 8.57401C6.02353 8.02916 6.12135 7.24399 6.66605 6.8201Z" fill="#CCCCCC"/>
<path d="M22.7065 3.11969C22.9784 2.48529 23.7127 2.19081 24.3472 2.46246C24.9816 2.73436 25.2761 3.4696 25.0044 4.10406C24.6385 4.95794 23.9725 6.27156 23.1382 7.49274C22.3421 8.65795 21.2369 9.97552 19.9321 10.5347C20.0065 9.85092 19.9796 9.6173 19.8059 9.21204C19.5788 8.68216 19.2339 8.44688 18.9478 8.23688C19.5447 7.98101 20.3076 7.20393 21.0737 6.08258C21.8017 5.01697 22.3932 3.85072 22.7065 3.11969Z" fill="#CCCCCC"/>
<path d="M11.0479 18.6743C11.5466 19.1284 12.3653 19.4753 13.2738 19.4753C13.2698 19.7431 13.1802 20.0116 13.0001 20.2368C11.4992 22.1129 8.92388 23.9578 6.64557 24.7173C5.99066 24.9356 5.28285 24.5812 5.06452 23.9263C4.84623 23.2714 5.19976 22.5636 5.85456 22.3452C7.65167 21.7462 9.83182 20.1944 11.0479 18.6743Z" fill="#CCCCCC"/>
<circle cx="15.6648" cy="4.5" r="2.5" fill="#CCCCCC"/>
</svg>
