<svg width="153" height="206" viewBox="0 0 153 206" fill="none" xmlns="http://www.w3.org/2000/svg">
<path d="M8 121.5C8 108.521 18.5213 98 31.5 98C44.4787 98 55 108.521 55 121.5V196C55 201.523 50.5228 206 45 206H18C12.4772 206 8 201.523 8 196V121.5Z" fill="currentColor"/>
<path d="M91.3851 157.904C85.6865 143.566 96.2501 128 111.679 128C120.627 128 128.669 133.458 131.974 141.773L152.058 192.307C154.667 198.872 149.83 206 142.765 206H117.287C113.19 206 109.507 203.501 107.994 199.693L91.3851 157.904Z" fill="currentColor"/>
<path d="M66 0C102.451 0 132 29.5492 132 66C132 98.719 108.191 125.877 76.9539 131.095C70.9618 132.096 66 127.075 66 121V103.111C66 86.5428 52.5685 73.1113 36 73.1113C32.4872 73.1113 29.1154 73.7151 25.9827 74.8245C16.4099 78.2147 0.219428 77.5157 0.0137855 67.3624C0.00460991 66.9094 0 66.4552 0 66C0 29.5492 29.5492 0 66 0Z" fill="currentColor"/>
</svg>
