<svg width="20" height="19" viewBox="0 0 20 19" fill="none" xmlns="http://www.w3.org/2000/svg">
<path fill-rule="evenodd" clip-rule="evenodd" d="M11.0477 1.22609L12.9513 5.02895C13.1378 5.40229 13.4979 5.66116 13.9155 5.72106L18.1739 6.33401C19.226 6.48592 19.6446 7.76102 18.8832 8.49165L15.8039 11.4505C15.5013 11.7415 15.3635 12.1597 15.4351 12.5705L16.1618 16.7478C16.3408 17.7811 15.241 18.5695 14.3006 18.0806L10.4946 16.107C10.1214 15.9134 9.67457 15.9134 9.30036 16.107L5.49434 18.0806C4.55395 18.5695 3.45412 17.7811 3.63417 16.7478L4.3598 12.5705C4.43139 12.1597 4.29364 11.7415 3.99102 11.4505L0.911711 8.49165C0.150289 7.76102 0.568963 6.48592 1.62107 6.33401L5.87939 5.72106C6.29698 5.66116 6.65817 5.40229 6.84472 5.02895L8.74719 1.22609C9.21793 0.285802 10.577 0.285802 11.0477 1.22609Z" stroke="#CCCCCC" stroke-width="1.04167" stroke-linecap="round" stroke-linejoin="round"/>
</svg>
