<?xml version="1.0" standalone="no"?><!DOCTYPE svg PUBLIC "-//W3C//DTD SVG 1.1//EN" "http://www.w3.org/Graphics/SVG/1.1/DTD/svg11.dtd"><svg t="1764304407599" class="icon" viewBox="0 0 1024 1024" version="1.1" xmlns="http://www.w3.org/2000/svg" p-id="19468" xmlns:xlink="http://www.w3.org/1999/xlink" width="256" height="256"><path d="M392 942c-16.57 0-30-13.44-30-30V112c0-16.57 13.43-30 30-30s30 13.43 30 30v800c0 16.56-13.43 30-30 30zM632 742c-16.56 0-30-13.44-30-30V312c0-16.57 13.44-30 30-30s30 13.43 30 30v400c0 16.56-13.44 30-30 30zM872 622c-16.56 0-30-13.44-30-30V432c0-16.57 13.44-30 30-30s30 13.43 30 30v160c0 16.56-13.44 30-30 30zM152 662c-16.57 0-30-13.44-30-30V392c0-16.57 13.43-30 30-30s30 13.43 30 30v240c0 16.56-13.43 30-30 30z" p-id="19469"></path></svg>