<svg width="20" height="20" viewBox="0 0 20 20" fill="none" xmlns="http://www.w3.org/2000/svg">
<path d="M7.93829 18.2581C7.93829 18.4686 7.85466 18.6705 7.70579 18.8194C7.55692 18.9683 7.355 19.0519 7.14447 19.0519H0.79383C0.583293 19.0519 0.381379 18.9683 0.232507 18.8194C0.0836355 18.6705 0 18.4686 0 18.2581V0.79383C0 0.583293 0.0836355 0.381379 0.232507 0.232507C0.381379 0.0836355 0.583293 0 0.79383 0H7.14447C7.355 0 7.55692 0.0836355 7.70579 0.232507C7.85466 0.381379 7.93829 0.583293 7.93829 0.79383C7.93829 1.00437 7.85466 1.20628 7.70579 1.35515C7.55692 1.50402 7.355 1.58766 7.14447 1.58766H1.58766V17.4642H7.14447C7.355 17.4642 7.55692 17.5479 7.70579 17.6968C7.85466 17.8456 7.93829 18.0475 7.93829 18.2581ZM18.8197 8.96432L14.8506 4.99517C14.7395 4.88403 14.598 4.80832 14.444 4.77764C14.2899 4.74696 14.1302 4.76268 13.9851 4.82281C13.8399 4.88295 13.7159 4.98479 13.6287 5.11545C13.5415 5.24611 13.495 5.39971 13.4951 5.55681V8.73212H7.14447C6.93393 8.73212 6.73202 8.81576 6.58314 8.96463C6.43427 9.1135 6.35064 9.31542 6.35064 9.52595C6.35064 9.73649 6.43427 9.93841 6.58314 10.0873C6.73202 10.2361 6.93393 10.3198 7.14447 10.3198H13.4951V13.4951C13.495 13.6522 13.5415 13.8058 13.6287 13.9365C13.7159 14.0671 13.8399 14.169 13.9851 14.2291C14.1302 14.2892 14.2899 14.3049 14.444 14.2743C14.598 14.2436 14.7395 14.1679 14.8506 14.0567L18.8197 10.0876C18.8935 10.0139 18.9521 9.92631 18.992 9.82994C19.032 9.73357 19.0525 9.63028 19.0525 9.52595C19.0525 9.42163 19.032 9.31833 18.992 9.22196C18.9521 9.1256 18.8935 9.03804 18.8197 8.96432Z" fill="#3B3D2C"/>
</svg>
