<svg width="13" height="16" viewBox="0 0 13 16" fill="none" xmlns="http://www.w3.org/2000/svg">
<path d="M6.27262 0C3.22491 0 1.01852 0.915018 0.23836 2.21737C0.0360682 2.55452 0 2.9199 0 3.1363V12.5452C0 12.7616 0.0611573 13.1168 0.251688 13.4665C0.939324 14.7249 3.22491 15.6815 6.27262 15.6815C9.31954 15.6815 11.4428 14.7908 12.2567 13.5465C12.4323 13.2775 12.5499 12.8769 12.5452 12.5452V3.1363C12.5452 2.9199 12.5162 2.69252 12.4182 2.45416C11.7957 0.950303 9.31954 0 6.27262 0ZM6.27262 1.56815C7.6471 1.56815 8.93063 1.81122 9.84957 2.20483C10.6156 2.53336 10.9771 2.89324 10.9771 3.1363C10.9771 3.37936 10.6156 3.73924 9.84957 4.06777C8.93063 4.46138 7.6471 4.70445 6.27262 4.70445C4.89813 4.70445 3.61381 4.46138 2.69487 4.06777C1.92883 3.73924 1.56815 3.37936 1.56815 3.1363C1.56815 2.89324 1.92883 2.53336 2.69487 2.20483C3.61381 1.81122 4.89813 1.56815 6.27262 1.56815ZM1.56502 5.25958C2.72232 5.92134 4.37593 6.2726 6.27262 6.2726C8.16851 6.2726 9.81507 5.92917 10.9732 5.2682L10.9771 7.84075C10.9771 8.08381 10.6156 8.4437 9.84957 8.77222C8.93063 9.16583 7.6471 9.4089 6.27262 9.4089C4.89813 9.4089 3.61381 9.16583 2.69487 8.77222C1.92883 8.4437 1.56815 8.08381 1.56815 7.84075L1.56502 5.25958ZM1.56894 9.97186C2.68782 10.5787 4.37593 10.9771 6.27262 10.9771C8.16851 10.9771 9.78764 10.6077 10.9739 9.97265L10.9771 12.5452C10.9771 12.7883 10.6156 13.1481 9.84957 13.4767C8.93063 13.8703 7.6471 14.1134 6.27262 14.1134C4.89813 14.1134 3.61381 13.8703 2.69487 13.4767C1.92883 13.1481 1.56815 12.7883 1.56815 12.5452L1.56894 9.97186Z" fill="#2A343D"/>
</svg>
