<svg t="1762854185215" class="icon" viewBox="0 0 1024 1024" version="1.1" xmlns="http://www.w3.org/2000/svg" p-id="10902" width="256" height="256"><path d="M740.597 162.574c33.928 0 61.698 34.106 61.698 75.793v547.97c0 41.687-27.77 75.783-61.698 75.783h-30.84c-33.93 0-61.693-34.096-61.693-75.782V238.367c0-41.687 27.764-75.793 61.693-75.793h30.84z m-426.305 0c33.932 0 61.696 34.106 61.696 75.793v547.97c0 41.687-27.766 75.783-61.696 75.783h-30.835c-33.935 0-61.698-34.096-61.698-75.782V238.367c0-41.687 27.763-75.793 61.698-75.793h30.835z" p-id="10903" fill="currentColor"></path></svg>