<svg width="33" height="33" viewBox="0 0 33 33" fill="none" xmlns="http://www.w3.org/2000/svg">
<path d="M15.6906 3.80786H10.5856C6.38723 3.80786 3.75488 6.78018 3.75488 10.9881V22.3394C3.75488 26.5474 6.37495 29.5197 10.5856 29.5197H22.6333C26.8453 29.5197 29.4654 26.5474 29.4654 22.3394V16.8399" stroke="black" stroke-width="2.04799" stroke-linecap="round" stroke-linejoin="round"/>
<path fill-rule="evenodd" clip-rule="evenodd" d="M12.0525 14.9105L22.2555 4.70744C23.5267 3.43769 25.5869 3.43769 26.8581 4.70744L28.5197 6.36905C29.7908 7.64017 29.7908 9.70181 28.5197 10.9716L18.2674 21.2238C17.7117 21.7795 16.9581 22.0922 16.1716 22.0922H11.0571L11.1855 16.9312C11.2046 16.1721 11.5145 15.4485 12.0525 14.9105Z" stroke="black" stroke-width="2.04799" stroke-linecap="round" stroke-linejoin="round"/>
<path d="M20.7051 6.28394L26.9392 12.518" stroke="black" stroke-width="2.04799" stroke-linecap="round" stroke-linejoin="round"/>
</svg>
