<svg width="20" height="20" viewBox="0 0 20 20" fill="none" xmlns="http://www.w3.org/2000/svg">
<g opacity="0.3">
<path d="M3.49609 6.36719L10.0722 9.97761M10.0722 9.97761L16.5194 6.36719M10.0722 9.97761V17.4241" stroke="#3B3D2C" stroke-width="1.2" stroke-linejoin="round"/>
<path d="M10.5221 3.30853L15.9737 6.08887C16.3085 6.25965 16.5194 6.6038 16.5194 6.97971V13.3165C16.5194 13.6826 16.3193 14.0194 15.9979 14.1946L10.546 17.1658C10.2503 17.327 9.89329 17.3285 9.59623 17.1698L4.02483 14.1929C3.69934 14.019 3.49609 13.6799 3.49609 13.3109V6.9852C3.49609 6.60643 3.7101 6.26016 4.04888 6.09077L9.62051 3.30494C9.90455 3.16292 10.2392 3.16426 10.5221 3.30853Z" stroke="#3B3D2C" stroke-width="1.2"/>
</g>
</svg>
