<svg width="33" height="33" viewBox="0 0 33 33" fill="none" xmlns="http://www.w3.org/2000/svg">
<path d="M26.3846 12.9272C26.3846 12.9272 25.6433 22.1227 25.2132 25.9962C25.0084 27.8462 23.8656 28.9302 21.9937 28.9644C18.4316 29.0286 14.8654 29.0326 11.3046 28.9576C9.50373 28.9207 8.38007 27.823 8.17936 26.0057C7.74655 22.0982 7.00928 12.9272 7.00928 12.9272" stroke="#DB7A7A" stroke-width="2.04799" stroke-linecap="round" stroke-linejoin="round"/>
<path d="M28.2733 8.51933H5.12012" stroke="#DB7A7A" stroke-width="2.04799" stroke-linecap="round" stroke-linejoin="round"/>
<path d="M23.8119 8.51924C22.7401 8.51924 21.8171 7.76149 21.6069 6.71155L21.2751 5.05131C21.0703 4.28536 20.3767 3.75562 19.5862 3.75562H13.8067C13.0162 3.75562 12.3226 4.28536 12.1178 5.05131L11.7861 6.71155C11.5758 7.76149 10.6528 8.51924 9.58105 8.51924" stroke="#DB7A7A" stroke-width="2.04799" stroke-linecap="round" stroke-linejoin="round"/>
</svg>
